<svg xmlns="http://www.w3.org/2000/svg" width="96" height="96" viewBox="0 0 96 96">
  <defs>
    <filter id="shadow" x="-20%" y="-20%" width="140%" height="140%">
      <feDropShadow dx="2" dy="2" stdDeviation="2" flood-color="rgba(0,0,0,0.3)"/>
    </filter>
  </defs>
  
  <!-- Background circle for the shield head -->
  <circle cx="48" cy="30" r="25" fill="#FFD700" stroke="#000" stroke-width="2" filter="url(#shadow)"/>
  
  <!-- Shield sections -->
  <path d="M 23 30 L 48 5 L 73 30 L 73 45 L 48 55 L 23 45 Z" fill="#FF0000" stroke="#000" stroke-width="1"/>
  <path d="M 23 30 L 48 15 L 73 30 L 73 40 L 48 50 L 23 40 Z" fill="#FFFFFF" stroke="#000" stroke-width="1"/>
  <path d="M 23 30 L 48 25 L 73 30 L 73 35 L 48 45 L 23 35 Z" fill="#0000FF" stroke="#000" stroke-width="1"/>
  
  <!-- Eye in white section -->
  <circle cx="48" cy="35" r="3" fill="#0000FF"/>
  
  <!-- Stars in red section -->
  <polygon points="30,25 32,28 35,28 33,31 34,34 30,32 26,34 27,31 25,28 28,28" fill="#FFD700"/>
  <polygon points="66,25 68,28 71,28 69,31 70,34 66,32 62,34 63,31 61,28 64,28" fill="#FFD700"/>
  
  <!-- Stars in blue section -->
  <polygon points="30,40 32,43 35,43 33,46 34,49 30,47 26,49 27,46 25,43 28,43" fill="#FFD700"/>
  <polygon points="66,40 68,43 71,43 69,46 70,49 66,47 62,49 63,46 61,43 64,43" fill="#FFD700"/>
  
  <!-- Body -->
  <rect x="35" y="55" width="26" height="25" fill="#0000FF" stroke="#000" stroke-width="2" rx="5"/>
  
  <!-- Feet -->
  <ellipse cx="40" cy="85" rx="8" ry="6" fill="#FFD700" stroke="#000" stroke-width="2"/>
  <ellipse cx="56" cy="85" rx="8" ry="6" fill="#FFD700" stroke="#000" stroke-width="2"/>
  
  <!-- Arms -->
  <ellipse cx="30" cy="65" rx="6" ry="12" fill="#0000FF" stroke="#000" stroke-width="1"/>
  <ellipse cx="66" cy="65" rx="6" ry="12" fill="#0000FF" stroke="#000" stroke-width="1"/>
</svg>
